<?xml version="1.0" encoding="UTF-8"?>
<svg version="1.1" xmlns="http://www.w3.org/2000/svg" width="128" height="128">
<path d="M0 0 C42.24 0 84.48 0 128 0 C128 42.24 128 84.48 128 128 C85.76 128 43.52 128 0 128 C0 85.76 0 43.52 0 0 Z " fill="#090D16" transform="translate(0,0)"/>
<path d="M0 0 C2.97 0 5.94 0 9 0 C9.33 3.63 9.66 7.26 10 11 C10.60585938 10.2059375 11.21171875 9.411875 11.8359375 8.59375 C18.43959578 0.39431836 18.43959578 0.39431836 22.890625 -0.73046875 C25.34742318 -0.69186192 27.59787131 -0.5059803 30 0 C26.92877136 5.03681497 23.27083334 8.94510767 19 13 C20.79795371 17.08906044 23.44594156 20.53509662 26.0625 24.125 C30.88006757 30.76013514 30.88006757 30.76013514 32 33 C28.13039902 33.716057 24.84634323 33.92213613 21 33 C17.3681722 29.74691996 14.67134903 26.06308889 12 22 C11.34 22.33 10.68 22.66 10 23 C9.53248212 25.35599235 9.53248212 25.35599235 9.375 28.0625 C9.30023438 28.98160156 9.22546875 29.90070313 9.1484375 30.84765625 C9.09945313 31.55792969 9.05046875 32.26820312 9 33 C6.03 33 3.06 33 0 33 C0 22.11 0 11.22 0 0 Z " fill="#94D2E2" transform="translate(21,52)"/>
<path d="M0 0 C7.92 0 15.84 0 24 0 C24 2.64 24 5.28 24 8 C18.72 8 13.44 8 8 8 C8.33 8.99 8.66 9.98 9 11 C9.59167969 10.96519531 10.18335937 10.93039063 10.79296875 10.89453125 C15.72123437 10.72569996 19.01654416 10.74080886 23 14 C25.8288298 18.2432447 25.65268001 22.01734529 25 27 C22.87449785 30.64371797 20.86916449 32.4455462 17 34 C10.62647929 34.68351127 4.36488794 34.91491823 -1 31 C-1.33 30.01 -1.66 29.02 -2 28 C-0.0625 25.3125 -0.0625 25.3125 2 23 C2.721875 23.309375 3.44375 23.61875 4.1875 23.9375 C8.23544611 25.46672409 10.82897658 26.39034114 15 25 C15 23.35 15 21.7 15 20 C11.68304668 19.28922429 9.23802688 18.95715516 5.875 19.5625 C3 20 3 20 -1 18 C-0.505 9.09 -0.505 9.09 0 0 Z " fill="#92CFDF" transform="translate(84,52)"/>
<path d="M0 0 C8.58 0 17.16 0 26 0 C26 7.87383798 26 7.87383798 24.42578125 10.83203125 C23.92208008 11.8055957 23.92208008 11.8055957 23.40820312 12.79882812 C23.04662109 13.46333984 22.68503906 14.12785156 22.3125 14.8125 C21.94962891 15.50666016 21.58675781 16.20082031 21.21289062 16.91601562 C20.48782365 18.30304428 19.75762378 19.68740347 19.02197266 21.06884766 C17.63495697 23.68979702 16.31545485 26.34255374 15 29 C14.34 30.32 13.68 31.64 13 33 C9.7 33 6.4 33 3 33 C4.60676453 27.54406329 7.05030894 22.6697853 9.625 17.625 C10.04523438 16.79355469 10.46546875 15.96210937 10.8984375 15.10546875 C11.92864639 13.06846481 12.96382401 11.0339751 14 9 C7.07 8.505 7.07 8.505 0 8 C0 5.36 0 2.72 0 0 Z " fill="#92D0E1" transform="translate(54,52)"/>
<path d="M0 0 C6.15234375 -0.09765625 6.15234375 -0.09765625 8 0 C8.33 0.33 8.66 0.66 9 1 C8.71269945 3.33944736 8.38063221 5.6739143 8 8 C8.66 8 9.32 8 10 8 C10.144375 7.236875 10.28875 6.47375 10.4375 5.6875 C11 3 11 3 12 0 C13.65 0 15.3 0 17 0 C20 6.625 20 6.625 20 10 C17.61435923 9.42415568 15.33317216 8.77772405 13 8 C13 8.66 13 9.32 13 10 C10.36 10 7.72 10 5 10 C5 9.34 5 8.68 5 8 C4.34 8 3.68 8 3 8 C3 8.66 3 9.32 3 10 C2.01 10 1.02 10 0 10 C0 6.7 0 3.4 0 0 Z " fill="#88C1D1" transform="translate(49,33)"/>
<path d="M0 0 C4 1 4 1 6 3 C6.66 2.01 7.32 1.02 8 0 C8.99 0 9.98 0 11 0 C11 3.3 11 6.6 11 10 C10.01 10 9.02 10 8 10 C7.67 9.34 7.34 8.68 7 8 C6.34 8.66 5.68 9.32 5 10 C4.67 9.34 4.34 8.68 4 8 C3.67 8.66 3.34 9.32 3 10 C2.01 10 1.02 10 0 10 C0 6.7 0 3.4 0 0 Z " fill="#8FCBDC" transform="translate(86,33)"/>
<path d="M0 0 C6.15234375 -0.09765625 6.15234375 -0.09765625 8 0 C9 1 9 1 9.1328125 2.8125 C9.13023438 3.534375 9.12765625 4.25625 9.125 5 C9.12757812 5.721875 9.13015625 6.44375 9.1328125 7.1875 C9 9 9 9 8 10 C5.32941149 10.14115161 2.67567762 10.04247107 0 10 C0 6.7 0 3.4 0 0 Z " fill="#83BACA" transform="translate(38,33)"/>
<path d="M0 0 C0.99 0 1.98 0 3 0 C3 1.32 3 2.64 3 4 C3.99 4 4.98 4 6 4 C6 2.68 6 1.36 6 0 C6.99 0 7.98 0 9 0 C9 3.3 9 6.6 9 10 C8.01 10 7.02 10 6 10 C6 9.01 6 8.02 6 7 C5.01 7 4.02 7 3 7 C3 7.99 3 8.98 3 10 C2.01 10 1.02 10 0 10 C0 6.7 0 3.4 0 0 Z " fill="#8FCBDB" transform="translate(70,33)"/>
<path d="M0 0 C1.65 0 3.3 0 5 0 C5.33 1.65 5.66 3.3 6 5 C3.36 5.66 0.72 6.32 -2 7 C-1.34 4.69 -0.68 2.38 0 0 Z " fill="#82B9C8" transform="translate(61,33)"/>
<path d="M0 0 C0.99 0 1.98 0 3 0 C3 3.3 3 6.6 3 10 C2.01 10 1.02 10 0 10 C0 6.7 0 3.4 0 0 Z " fill="#8ECADA" transform="translate(81,33)"/>
<path d="M0 0 C0.99 0 1.98 0 3 0 C3 3.3 3 6.6 3 10 C2.01 10 1.02 10 0 10 C0 6.7 0 3.4 0 0 Z " fill="#8ECADA" transform="translate(33,33)"/>
</svg>
